<?xml version="1.0" encoding="utf-8"?>
<!-- Designed by Vexels.com - 2017 All Rights Reserved - https://vexels.com/terms-and-conditions/  -->

<svg version="1.1" id="Layer_1" xmlns="http://www.w3.org/2000/svg" xmlns:xlink="http://www.w3.org/1999/xlink" x="0px" y="0px"
	 width="1200px" height="1200px" viewBox="0 0 1200 1200" enable-background="new 0 0 1200 1200" xml:space="preserve">
<g>
	<path fill="#777776" d="M815.138,288.295c-0.248,0-0.488-0.018-0.745-0.055c-4.065-0.397-7.018-4.028-6.612-8.075
		c9.841-98.454,0.425-176.766-24.569-204.388c-6.724-7.398-14.321-11.02-23.241-11.02h-0.008c-9.385,0-17.279,3.595-24.117,10.966
		c-34.616,37.386-26.429,150.752-26.338,151.899c0.307,4.074-2.737,7.624-6.802,7.913c-4.141,0.352-7.623-2.718-7.93-6.783
		c-0.375-4.913-8.757-120.963,30.232-163.054C734.658,55.284,746.419,50,759.963,50h0.008c13.147,0,24.646,5.329,34.188,15.871
		c41.68,46.056,32.21,176.792,28.321,215.759C822.097,285.45,818.886,288.295,815.138,288.295z"/>
	<g>
		<polygon fill="#006960" points="532.385,162.418 532.385,469.379 581.838,217.309 		"/>
		<polygon fill="#004039" points="453.075,179.779 557.17,192.389 532.385,162.418 980.97,259.067 852.112,578.428 		"/>
		<polygon fill="#009E90" points="453.075,179.779 869.459,301.203 837.236,1077.523 467.952,859.311 		"/>
		<polygon fill="#006960" points="869.459,301.203 837.236,259.067 980.97,259.067 1036.502,997.351 837.236,1077.523 		"/>
	</g>
	<path fill="#777776" d="M724.506,305.765c-0.249,0-0.497-0.009-0.745-0.045c-4.065-0.398-7.018-4.01-6.611-8.066
		c9.836-98.463,0.415-176.775-24.591-204.387c-6.702-7.389-14.308-10.993-23.214-10.993c-0.009,0-0.014,0-0.014,0
		c-9.394,0-17.288,3.586-24.121,10.957c-34.644,37.412-26.415,150.752-26.33,151.899c0.307,4.056-2.737,7.615-6.801,7.913
		c-3.993,0.28-7.615-2.737-7.93-6.802c-0.376-4.904-8.762-120.963,30.222-163.054c9.652-10.405,21.412-15.698,34.947-15.698
		c0.013,0,0.018,0,0.027,0c13.133,0,24.636,5.338,34.165,15.87c41.695,46.038,32.228,176.792,28.335,215.768
		C731.461,302.928,728.254,305.765,724.506,305.765z"/>
	<path fill="#777776" d="M520.742,497.452c-0.249,0-0.497,0-0.745-0.036c-4.06-0.398-7.018-4.029-6.621-8.084
		c9.285-92.99,0.993-161.375-22.744-187.587c-7.217-7.985-15.649-11.85-25.774-11.85c-0.009,0-0.009,0-0.018,0
		c-10.26,0-18.729,3.82-25.887,11.634c-32.286,35.271-23.949,134.177-23.869,135.189c0.366,4.047-2.637,7.623-6.71,7.985
		c-3.948,0.433-7.646-2.629-8.003-6.702c-0.384-4.336-8.978-106.358,27.676-146.435c9.972-10.893,22.346-16.429,36.794-16.429
		c0,0,0.009,0,0.018,0c14.335,0,26.686,5.609,36.731,16.691c36.324,40.132,32.192,141.892,26.488,198.977
		C527.697,494.615,524.491,497.452,520.742,497.452z"/>
	<g>
		<polygon fill="#F49800" points="266.834,351.478 266.834,513.855 317.465,407.669 		"/>
		<polygon fill="#610710" points="185.641,369.236 292.22,382.161 266.834,351.478 675.27,489.115 543.323,664.174 		"/>
		<polygon fill="#F39221" points="185.641,369.236 561.081,532.236 524.436,1150 163.498,934.105 		"/>
		<polygon fill="#B55118" points="561.081,532.236 528.104,489.115 675.27,489.115 717.027,1098.587 524.436,1150 		"/>
	</g>
	<path fill="#777776" d="M443.966,529.318c-0.244,0-0.487-0.027-0.741-0.055c-4.059-0.415-7.018-4.019-6.611-8.075
		c9.832-98.472,0.415-176.784-24.582-204.405c-6.721-7.407-14.317-11.02-23.236-11.02c0,0,0,0-0.009,0
		c-9.385,0-17.266,3.604-24.108,10.984c-34.621,37.394-26.42,150.77-26.334,151.908c0.312,4.047-2.732,7.606-6.802,7.913
		c-4.191,0.325-7.614-2.746-7.926-6.793c-0.379-4.913-8.766-120.954,30.228-163.064c9.637-10.415,21.397-15.707,34.937-15.707h0.014
		c13.142,0,24.649,5.328,34.192,15.879c41.672,46.029,32.219,176.792,28.326,215.768
		C450.925,526.464,447.719,529.318,443.966,529.318z"/>
</g>
</svg>
